Coordinates
version=1
nRows=25
nColumns=33
inDegrees=yes

Units are S.I. units (second, meters, Newtons, ...)
Angles are in degrees.

endheader
time	ground_thorax_rot_x	ground_thorax_rot_y	ground_thorax_rot_z	ground_thorax_tx	ground_thorax_ty	ground_thorax_tz	clav_prot_r	clav_elev_r	scapula_abduction_r	scapula_elevation_r	scapula_upward_rot_r	scapula_winging_r	shoulder_elv_r	plane_of_elev_r	axial_rot_r	elbow_flexion_r	pro_sup_r	wrist_flex_r	wrist_dev_r	clav_prot_l	clav_elev_l	scapula_abduction_l	scapula_elevation_l	scapula_upward_rot_l	scapula_winging_l	shoulder_elv_l	plane_of_elev_l	axial_rot_l	elbow_flexion_l	pro_sup_l	wrist_flex_l	wrist_dev_l	
4.4600	37.352460	16.818119	20.219630	-279.554630	827.037046	8.807459	3.095877	43.072307	44.366164	45.000000	6.111527	2406.971553	-3533.110745	18.673442	-180.000000	1092.882457	-146.931619	19.596697	11.839178	8.744433	-45.000000	-35.499524	45.000000	-45.000000	-2777.819844	-452.262007	141.281671	137.957552	2897.951009	96.198530	-1.134701	-12.977343	
4.4700	37.322967	16.864699	20.342094	-279.195755	826.809284	8.735103	2.954897	43.075839	44.213405	45.000000	6.038251	2407.064227	-3533.214897	18.718923	-180.000000	1092.905162	-147.592108	19.574616	11.918823	8.754495	-45.000000	-35.526462	45.000000	-45.000000	-2777.817847	-452.295785	141.245046	138.199938	2897.935152	95.802444	-1.172868	-12.995332	
4.4800	37.292401	16.915340	20.467868	-278.808067	826.588864	8.660440	2.756649	43.100331	44.021186	45.000000	5.977917	2407.144275	-3533.347469	18.818397	-180.000000	1092.947791	-148.228082	19.524788	11.992598	8.741716	-45.000000	-35.520580	45.000000	-45.000000	-2777.817980	-452.310651	141.192313	138.451391	2897.905166	95.419256	-1.244854	-13.032165	
4.4900	37.261919	16.954689	20.581880	-278.350793	826.385896	8.580302	2.638374	43.108603	43.908997	45.000000	5.957450	2407.204340	-3533.439964	18.849940	-180.000000	1092.959078	-148.834561	19.506216	12.072244	8.764204	-45.000000	-35.543122	45.000000	-45.000000	-2777.823556	-452.329587	141.146232	138.701829	2897.886672	95.042168	-1.278710	-13.045757	
4.5000	37.232475	16.986716	20.688508	-277.825906	826.200096	8.495115	2.544332	43.110494	43.850179	45.000000	5.975583	2407.238774	-3533.509556	18.849739	-180.000000	1092.953462	-149.408569	19.500122	12.154179	8.800097	-45.000000	-35.566963	45.000000	-45.000000	-2777.831579	-452.340497	141.094322	138.960614	2897.867244	94.677603	-1.299464	-13.050587	
4.5100	37.210553	17.003580	20.782867	-277.229071	826.033342	8.405043	2.469648	43.113109	43.852165	45.000000	6.039633	2407.235491	-3533.561777	18.834904	-180.000000	1092.941597	-149.944203	19.496682	12.236727	8.843481	-45.000000	-35.584326	45.000000	-45.000000	-2777.843909	-452.345641	141.036043	139.229713	2897.850490	94.331803	-1.315665	-13.051771	
4.5200	37.191795	17.011939	20.865791	-276.565270	825.885959	8.311263	2.407742	43.107187	43.897879	45.000000	6.154506	2407.196822	-3533.594196	18.814912	-180.000000	1092.924720	-150.440202	19.497606	12.321090	8.883471	-45.000000	-35.597098	45.000000	-45.000000	-2777.862881	-452.339267	140.969339	139.517409	2897.834336	94.014265	-1.327369	-13.047171	
4.5300	37.185635	16.996102	20.924905	-275.840752	825.758647	8.215260	2.357077	43.100499	44.005384	45.000000	6.325245	2407.084628	-3533.621131	18.830498	-180.000000	1092.929642	-150.895179	19.485933	12.408775	8.903079	-45.000000	-35.587661	45.000000	-45.000000	-2777.895321	-452.322660	140.891575	139.823519	2897.824719	93.733488	-1.349185	-13.046891	
4.5400	37.184442	16.966666	20.961227	-275.057153	825.653886	8.118274	2.327635	43.082534	44.155921	45.000000	6.556122	2406.914625	-3533.632699	18.870895	-180.000000	1092.948607	-151.313212	19.470807	12.502270	8.905440	-45.000000	-35.572078	45.000000	-44.999999	-2777.944293	-452.292036	140.803506	140.153825	2897.822589	93.498895	-1.370671	-13.042977	
4.5500	37.187222	16.925888	20.978973	-274.211793	825.575352	8.021145	2.307653	43.060970	44.326848	45.000000	6.835819	2406.708495	-3533.639792	18.941090	-180.000000	1092.986828	-151.689297	19.445838	12.599511	8.895130	-45.000000	-35.557124	45.000000	-44.999998	-2778.009340	-452.254585	140.708784	140.505407	2897.833324	93.322467	-1.398294	-13.039117	
4.5600	37.184091	16.891680	20.993784	-273.298694	825.527036	7.924242	2.285133	43.032134	44.489356	45.000000	7.143851	2406.502857	-3533.639012	19.017440	-180.000000	1093.021739	-152.018927	19.421890	12.698997	8.885298	-45.000000	-35.555758	45.000000	-44.999997	-2778.083686	-452.208468	140.608157	140.877400	2897.854684	93.215282	-1.426541	-13.030523	
4.5700	37.178209	16.862275	21.010924	-272.310089	825.512393	7.827458	2.253068	43.002972	44.650281	45.000000	7.464389	2406.306789	-3533.635459	19.091311	-180.000000	1093.049469	-152.294965	19.397544	12.798656	8.881636	-45.000000	-35.565030	45.000000	-44.999995	-2778.162679	-452.162286	140.502601	141.263957	2897.888635	93.183867	-1.458231	-13.019652	
4.5800	37.160897	16.852310	21.047719	-271.238293	825.533824	7.730310	2.195187	42.976825	44.783140	45.000000	7.779604	2406.153695	-3533.631566	19.141873	-180.000000	1093.047474	-152.511574	19.380302	12.896275	8.898145	-45.000000	-35.589513	45.000000	-44.999991	-2778.235429	-452.110342	140.390649	141.663795	2897.931217	93.232817	-1.491595	-13.004706	
4.5900	37.132110	16.866746	21.107952	-270.077069	825.592293	7.632036	2.112671	42.954775	44.874351	45.000000	8.085919	2406.058513	-3533.629950	19.165882	-180.000000	1093.014081	-152.658895	19.370338	12.989924	8.931273	-45.000000	-35.632003	45.000000	-44.999984	-2778.303612	-452.059587	140.273123	142.075195	2897.978696	93.365561	-1.525362	-12.984105	
4.6000	37.095412	16.899069	21.184474	-268.822027	825.687202	7.531734	2.023655	42.933925	44.930651	45.000000	8.389482	2406.001083	-3533.636350	19.184188	-180.000000	1092.958855	-152.729794	19.364734	13.081438	8.968685	-45.000000	-35.690399	45.000000	-44.999971	-2778.373055	-452.006482	140.153629	142.495316	2898.036889	93.581989	-1.561178	-12.958671	
4.6100	37.057768	16.939881	21.259889	-267.470903	825.816490	7.428593	1.941745	42.910286	44.969642	45.000000	8.719814	2405.950734	-3533.645613	19.214123	-180.000000	1092.901318	-152.724549	19.356061	13.172576	8.994393	-45.000000	-35.759372	45.000000	-44.999949	-2778.457232	-451.951803	140.030521	142.931739	2898.106355	93.880866	-1.599542	-12.929424	
4.6200	37.017519	16.987539	21.336869	-266.023007	825.976841	7.322109	1.859581	42.883875	44.990667	45.000000	9.074998	2405.909472	-3533.660100	19.257791	-180.000000	1092.845616	-152.648148	19.343100	13.266457	9.016056	-45.000000	-35.839562	45.000000	-44.999908	-2778.551907	-451.892170	139.905527	143.387012	2898.194811	94.258468	-1.643381	-12.899823	
4.6300	36.974755	17.043755	21.413678	-264.478811	826.163841	7.212320	1.774935	42.854409	44.999029	45.000000	9.463333	2405.870166	-3533.674689	19.309949	-180.000000	1092.789462	-152.505756	19.324771	13.362334	9.032128	-45.000000	-35.929083	45.000000	-44.999836	-2778.661013	-451.830365	139.776241	143.863700	2898.294185	94.713374	-1.691380	-12.870998	
4.6400	36.928815	17.106885	21.495477	-262.839471	826.372092	7.099937	1.684550	42.822759	45.000000	45.000000	9.873133	2405.834360	-3533.691338	19.371876	-180.000000	1092.732239	-152.301550	19.301528	13.462713	9.048845	-45.000000	-36.024737	45.000000	-44.999706	-2778.777919	-451.764179	139.643572	144.359651	2898.410703	95.241036	-1.745856	-12.845869	
4.6500	36.878510	17.180155	21.582304	-261.106377	826.595283	6.986365	1.582587	42.789770	45.000000	45.000000	10.311987	2405.798547	-3533.702816	19.430343	-180.000000	1092.667709	-152.040370	19.273424	13.565468	9.065744	-45.000000	-36.124153	45.000000	-44.999474	-2778.904514	-451.695348	139.503549	144.877822	2898.535189	95.838745	-1.804978	-12.824894	
4.6600	36.819767	17.263659	21.683240	-259.280715	826.826150	6.873576	1.464208	42.757572	45.000000	45.000000	10.762064	2405.768351	-3533.714817	19.478955	-180.000000	1092.590207	-151.725475	19.243251	13.672325	9.090938	-45.000000	-36.224818	45.000000	-44.999058	-2779.031757	-451.621430	139.355725	145.415825	2898.666607	96.501277	-1.869281	-12.810443	
4.6700	36.753711	17.357907	21.793111	-257.363404	827.056481	6.763958	1.336777	42.725186	45.000000	45.000000	11.231188	2405.740264	-3533.724183	19.516025	-180.000000	1092.501457	-151.357852	19.208702	13.779538	9.114035	-45.000000	-36.329974	45.000000	-44.998313	-2779.167736	-451.547656	139.201213	145.971219	2898.796908	97.226439	-1.936359	-12.801246	
4.6800	36.681170	17.458673	21.911027	-255.354810	827.276887	6.660045	1.208547	42.691648	45.000000	45.000000	11.714947	2405.711265	-3533.734939	19.551125	-180.000000	1092.409173	-150.938273	19.167866	13.887026	9.131985	-45.000000	-36.439722	45.000000	-44.996975	-2779.312797	-451.473578	139.044697	146.543077	2898.929717	98.011451	-2.006719	-12.797475	
4.6900	36.602390	17.565395	22.031357	-253.254652	827.477089	6.564366	1.081046	42.655786	45.000000	45.000000	12.223722	2405.679948	-3533.743070	19.581404	-180.000000	1092.316218	-150.466888	19.118824	13.991013	9.140466	-45.000000	-36.556415	45.000000	-44.994588	-2779.472865	-451.400212	138.886930	147.131713	2899.064482	98.858550	-2.079437	-12.798208	
4.7000	36.513649	17.680613	22.165221	-251.061490	827.645209	6.479004	0.951082	42.620852	45.000000	45.000000	12.731076	2405.651749	-3533.756569	19.607665	-180.000000	1092.222438	-149.946849	19.064695	14.094139	9.150714	-45.000000	-36.672565	45.000000	-44.990289	-2779.640214	-451.325419	138.727769	147.726778	2899.200517	99.762936	-2.154208	-12.804392	
